<svg xmlns="http://www.w3.org/2000/svg" viewBox="0 0 193 193"><defs><style>.cls-1{stroke:#fff;stroke-miterlimit:10;}.cls-2{fill:#fff;}</style></defs><g id="Layer_2" data-name="Layer 2"><g id="Layer_1-2" data-name="Layer 1"><circle class="cls-1" cx="96.5" cy="96.5" r="96"/><path class="cls-2" d="M96.66,45.64c5.11-8.79,12.57-12.83,22.69-10.59C128,37,132.81,43.43,134.27,54.24c1.68.44,3.38.75,5,1.34a19.54,19.54,0,0,1,12.37,22.57,1.28,1.28,0,0,0,.65,1.58,22,22,0,0,1-.08,36.26c-.51.36-.79.61-.64,1.36a19.56,19.56,0,0,1-16.2,23.75c-.36.06-.72.14-1.15.23a19.69,19.69,0,0,1-5.39,13.76,19.45,19.45,0,0,1-10.38,5.79c-7,1.47-16.61-1-21.75-10.84-5.55,9.25-13.48,13.45-24.05,10.14-8.85-2.78-13-9.58-13.61-18.81-1.32-.31-2.73-.54-4.08-1a19.57,19.57,0,0,1-13.23-22.93A1.21,1.21,0,0,0,41.1,116a22,22,0,0,1,0-36.36,1.49,1.49,0,0,0,.59-1.22,19.74,19.74,0,0,1,16.87-24l.42-.08c.67-9.84,5.34-16.83,15-19.24C84,32.6,91.55,36.85,96.66,45.64ZM52.36,79.41c-7.76,0-15.15,6.24-17,14.57-1.91,8.58,2.88,16.32,7.52,18.88,1.57-1.9,3.12-3.74,4.63-5.62a9.34,9.34,0,0,0,1-1.62c.71-1.37,1.28-2.82,2.11-4.1a1.71,1.71,0,0,1,2.59-.4,1.8,1.8,0,0,1,.08,2.63c-2,2.63-2,4.76,0,7.37a1.82,1.82,0,0,1-.09,2.63,1.71,1.71,0,0,1-2.51-.32c-.65-.76-1.2-1.61-1.79-2.43-4.18,4.12-5.35,11.34-2.87,17.1,2.64,6.13,8.86,9.56,13.24,9.55,1-2.38,1.94-4.7,2.88-7-1-.61-2.06-1.2-3-1.92a1.79,1.79,0,0,1-.58-2.66c.66-.83,1.68-.87,2.73-.1,3.42,2.49,6.87,2.32,10-.5,1-.91,1.95-1,2.72-.23s.7,1.79-.3,2.8a10.17,10.17,0,0,1-6.19,3,2.18,2.18,0,0,0-1.69,1,16,16,0,0,0-2.89,12.25,16.08,16.08,0,0,0,31.86-1c.21-2.62.13-5.26.15-7.89s.42-3.32,1.73-3.34,1.79.86,1.79,3.29c0,2,0,4,0,6.05a16.09,16.09,0,0,0,18.56,16.12c11.89-1.63,17.8-16.11,10.42-25.6a2.59,2.59,0,0,0-1.5-.82,11.07,11.07,0,0,1-6.37-3.21,1.84,1.84,0,0,1-.22-2.64c.76-.79,1.74-.73,2.71.16,3.08,2.83,6.63,3,9.95.58,1.09-.8,2.06-.8,2.73,0s.56,1.94-.56,2.75-2.07,1.29-3,1.86l2.89,7A16.13,16.13,0,0,0,148,126c1.47-5.45-.28-12.49-3.69-15-.55.76-1.05,1.56-1.65,2.27A1.75,1.75,0,1,1,140,111.1c2-2.6,2-4.77,0-7.36a1.75,1.75,0,0,1,.1-2.62,1.65,1.65,0,0,1,2.5.32,43.84,43.84,0,0,1,2.23,4.31,5.29,5.29,0,0,0,.48,1.08c1.68,2,3.39,4,5.14,6,4.88-2.78,9.54-10.81,7.26-19.62-2.08-8.07-9.49-13.74-16.84-13.75-.85,1.37-1.56,2.71-2.45,3.91a1.68,1.68,0,0,1-2.59.28,1.73,1.73,0,0,1-.06-2.53c2-2.68,2-4.7,0-7.5a2.51,2.51,0,0,1-.27-2,1.62,1.62,0,0,1,2.84-.27,50.1,50.1,0,0,1,2.63,4.31l7.18,1.55c2.43-9.55-5.46-19-14.05-19.19-.91,2.09-1.82,4.1-2.66,6.13a1.91,1.91,0,0,0,.08,1.1c.34,1.17.84,2.31,1.07,3.5A1.84,1.84,0,0,1,131,71.12c-1,.11-1.77-.64-1.95-1.93-.39-2.8-1.69-4.1-4.52-4.52-1.29-.18-2-.94-1.92-2A1.87,1.87,0,0,1,125,61.18c1.12.19,2.22.56,3.44.87a15.48,15.48,0,0,0,1.92-11,16.13,16.13,0,0,0-32,3.08c0,2.43,0,4.85,0,7.28,0,1.4-.67,2.2-1.77,2.19s-1.71-.79-1.72-2.23c0-1.61.07-3.21,0-4.81a34.62,34.62,0,0,0-.64-6.71A16,16,0,0,0,77.34,38a16.19,16.19,0,0,0-14.68,15.1,15.36,15.36,0,0,0,2.22,9.11c1.41-.37,2.66-.77,3.94-1A1.77,1.77,0,0,1,71,62.63c.16,1.09-.49,1.83-1.78,2-3,.47-4.22,1.68-4.65,4.79a1.68,1.68,0,0,1-1.8,1.65,1.53,1.53,0,0,1-1.64-1.76c.16-1.28.6-2.52.89-3.79a1.73,1.73,0,0,0,.1-1c-.94-2.17-1.94-4.31-3-6.61a16.19,16.19,0,0,0-14.1,19.22c2.41-.45,4.67-.84,6.91-1.32.31-.07.6-.51.79-.84a40.83,40.83,0,0,1,2.09-3.58,1.66,1.66,0,0,1,2.58-.27,1.8,1.8,0,0,1,0,2.55c-2,2.66-2.05,4.73,0,7.35a1.81,1.81,0,0,1-.06,2.63,1.71,1.71,0,0,1-2.59-.38C53.91,82.14,53.23,80.83,52.36,79.41Z"/><path class="cls-2" d="M109.76,119.33c0,1.79,0,3.42,0,5.06,0,1.42-.66,2.17-1.79,2.14s-1.68-.78-1.69-2.13c0-1.64,0-3.28,0-5H98.4c0,1.62,0,3.25,0,4.88,0,1.46-.59,2.21-1.7,2.24s-1.78-.75-1.79-2.28V119.4H87c0,1.65,0,3.28,0,4.91,0,1.44-.62,2.21-1.73,2.22s-1.75-.74-1.76-2.18c0-1.6,0-3.21,0-5H79.36c-3.74,0-5.51-1.76-5.52-5.5,0-1.35,0-2.7,0-4.17-1.9,0-3.66,0-5.42,0a1.74,1.74,0,0,1-1.8-1.8,1.67,1.67,0,0,1,1.65-1.67c.45,0,.91,0,1.36,0h4.12V98.3c-1.8,0-3.56,0-5.32,0a1.74,1.74,0,0,1-1.81-1.79,1.68,1.68,0,0,1,1.64-1.68,12.35,12.35,0,0,1,1.36,0c1.35,0,2.7,0,4.13,0V86.94c-1.56,0-3.07,0-4.58,0a4.9,4.9,0,0,1-1.33-.16A1.58,1.58,0,0,1,66.64,85a1.62,1.62,0,0,1,1.63-1.56c1.27-.07,2.55,0,3.82,0h1.75c0-1.47,0-2.81,0-4.16,0-3.74,1.8-5.53,5.51-5.54h4.2c0-1.69,0-3.28,0-4.87s.65-2.33,1.78-2.3,1.7.83,1.71,2.25c0,1.6,0,3.19,0,4.85h7.87c0-1.64,0-3.27,0-4.9,0-1.41.66-2.21,1.76-2.2s1.72.81,1.73,2.22c0,1.6,0,3.2,0,4.87h7.87c0-1.69,0-3.4,0-5.11a1.77,1.77,0,0,1,1.73-2,1.73,1.73,0,0,1,1.74,1.83c0,.86,0,1.72,0,2.59s0,1.71,0,2.75h4.35c3.48,0,5.33,1.83,5.36,5.31,0,1.4,0,2.79,0,4.38h4.12c.45,0,.91,0,1.36,0a1.73,1.73,0,0,1,1.74,1.74,1.76,1.76,0,0,1-1.84,1.77c-1.44.06-2.88,0-4.32,0l-1,0v7.79c1.63,0,3.26,0,4.88,0a2.43,2.43,0,0,1,1.58.46,2,2,0,0,1,.49,1.71,2.56,2.56,0,0,1-1.69,1.27c-1.71.17-3.44.06-5.27.06v7.85c1.63,0,3.26,0,4.89,0,.51,0,1.21.06,1.48.38.38.47.78,1.34.59,1.78a2.46,2.46,0,0,1-1.68,1.27,52.88,52.88,0,0,1-5.38.06c0,1.41,0,2.75,0,4.08,0,3.85-1.74,5.59-5.56,5.59Zm6.18-22.71V79c0-1.46-.35-1.81-1.83-1.81H79.23c-1.54,0-1.85.34-1.85,1.91q0,17.44,0,34.89c0,1.55.31,1.85,1.88,1.85q17.38,0,34.76,0c1.63,0,1.92-.29,1.92-2Z"/><path class="cls-2" d="M83.79,105.25a2.32,2.32,0,0,1,.31-1c1-1.19.43-2.31-.12-3.38a2.14,2.14,0,0,0-1.15-.77c-2-.71-2.41-1.36-2.4-3.73,0-2.09.51-2.79,2.45-3.45a2.68,2.68,0,0,0,1.48-3.6c-1-1.91-.8-2.66.88-4.34,1.51-1.51,2.34-1.66,4.15-.75a2.66,2.66,0,0,0,3.68-1.53c.66-1.92,1.33-2.36,3.63-2.36s2.84.47,3.5,2.37a2.68,2.68,0,0,0,3.7,1.51c1.82-.91,2.63-.74,4.23.86s1.73,2.36.8,4.24a2.66,2.66,0,0,0,1.48,3.6c1.92.65,2.34,1.25,2.35,3.36,0,2.55-.36,3.13-2.39,3.83a2.72,2.72,0,0,0-1.48,3.62c1,1.92.8,2.67-.88,4.34s-2.31,1.68-4.14.76a2.68,2.68,0,0,0-3.64,1.43c-.69,2-1.32,2.43-3.57,2.43s-2.93-.42-3.61-2.38a2.7,2.7,0,0,0-3.71-1.45C87.06,110,83.83,108,83.79,105.25Zm3.8.15c4.36-1.43,7.27-.12,9.12,3.67,1.87-3.92,4.86-5.13,8.87-3.67-1.41-4.09-.19-7,3.65-8.89-3.76-1.92-5.14-4.81-3.58-8.9-4.1,1.47-7.07.18-9.16-4.06-.25,2.37-1.56,3.26-3.45,4s-3.47,1.23-5.21-.29a14.73,14.73,0,0,1,.6,3.84A7.48,7.48,0,0,1,87,94.58c-.7.89-1.9,1.39-3.13,2.24,2.41.12,3.09,1.65,3.89,3.45S88.86,103.68,87.59,105.4Z"/><path class="cls-2" d="M96.6,102.32a5.82,5.82,0,1,1,5.91-5.83A5.83,5.83,0,0,1,96.6,102.32Zm2.34-5.78a2.29,2.29,0,1,0-2.36,2.29A2.31,2.31,0,0,0,98.94,96.54Z"/></g></g></svg>