<svg xmlns="http://www.w3.org/2000/svg" viewBox="0 0 193 193"><defs><style>.cls-1{stroke:#fff;stroke-miterlimit:10;}.cls-2{fill:#fff;}</style></defs><g id="Layer_2" data-name="Layer 2"><g id="Layer_1-2" data-name="Layer 1"><circle class="cls-1" cx="96.5" cy="96.5" r="96"/><path class="cls-2" d="M134.39,75.89c-.33,4.76-.71,9.52-1,14.28a2.83,2.83,0,0,0,.7,2c5,5,7.09,11.07,7.13,18q0,6.67,0,13.35a1.58,1.58,0,0,0,1.17,1.8,8.27,8.27,0,0,1,5.5,8c.07,2.14.06,4.29,0,6.43a8.33,8.33,0,0,1-5.56,8.15,1.46,1.46,0,0,0-1.1,1.69c0,1.26,0,2.52,0,3.78,0,2.48-.5,3.19-2.82,4-10.55,3.72-21.1,7.4-31.63,11.16a9.3,9.3,0,0,0-2.23,1.7.9.9,0,0,0-.18.28c-1.84,3.57-12.12,3.67-14-.34a3.78,3.78,0,0,0-2.06-1.62c-10.58-3.79-21.18-7.5-31.78-11.23-2.16-.76-2.68-1.48-2.71-3.74,0-.38,0-.77,0-1.15.18-2.39.2-4.32-2.77-5.51-2.73-1.08-3.83-3.95-3.9-6.95-.06-2.25-.08-4.51,0-6.75a8.23,8.23,0,0,1,5.43-7.9,1.74,1.74,0,0,0,1.27-1.92c0-5.32,0-10.64.17-16A22,22,0,0,1,60.8,92.35a2.66,2.66,0,0,0,.88-2.43c-1.72-15.49-1-30.83,3.58-45.8,3.27-10.81,10-18.8,20.66-23.08a23.57,23.57,0,0,1,11-1.42c2.17.19,4.4-.18,6.56.08,8.71,1.08,15.16,5.94,20.42,12.65,4.48,5.73,6.46,12.5,7.89,19.49A131,131,0,0,1,134.39,75.89Zm-67,11.54a49.36,49.36,0,0,1,16.08-4.82c2.6-.37,4.24,1,4.15,3.61s-.18,5.5,0,8.23a7.64,7.64,0,0,0,7.52,7.11c1.37,0,2.74,0,4.12,0,5,0,8.26-3.18,8.33-8.18,0-2.47,0-4.94-.1-7.41a3.17,3.17,0,0,1,3.44-3.48c5.42.8,10.77,1.92,15.72,4.42a9,9,0,0,0,1,.38,3.83,3.83,0,0,0,.14-.58,117.22,117.22,0,0,0-2-34.56c-1.25-5.89-3-11.6-6.78-16.43-4.07-5.13-9-9.08-15.65-10.07-2.09-.31-4.28.18-6.38-.08a19.11,19.11,0,0,0-12.49,2.59,29.82,29.82,0,0,0-13.64,17.7C67.23,58.09,66.33,70.64,67,83.33,67.07,84.63,67.22,85.92,67.36,87.43Zm-7.64,26.51c0,3.54,0,6.87.05,10.19,0,.36.59.84,1,1a8.48,8.48,0,0,1,5.64,8.12c.09,2.19.08,4.39,0,6.58-.13,3.82-1.92,6.66-5.52,8-1.89.7-.93,2-1.18,3.12s.44,1.39,1.3,1.69q8.16,2.82,16.28,5.7l12,4.24c0-.68.1-1.16.1-1.64,0-11.8,0-23.6,0-35.39a1.76,1.76,0,0,0-1.43-2c-8.7-3-17.38-6-26.08-9C61.32,114.3,60.63,114.17,59.72,113.94Zm45.9,48.48a3.48,3.48,0,0,0,.68,0c9.36-3.28,18.7-6.58,28.07-9.82,1.21-.42,1-1.28,1-2.11s.52-2-1-2.55c-3.82-1.41-5.64-4.34-5.7-8.38,0-1.86,0-3.73,0-5.59,0-4.23,1.8-7.25,5.81-8.85.37-.15.88-.6.89-.91.07-3.33,0-6.66,0-10.19-1.05.28-1.9.46-2.71.74-8.43,2.92-16.86,5.89-25.31,8.76a2.13,2.13,0,0,0-1.74,2.41c.06,11.58,0,23.15,0,34.73Zm7.79-73.28c0,1.83.08,3.63,0,5.43a13.43,13.43,0,0,1-10.89,12.56,49.24,49.24,0,0,1-6.22.36,13.86,13.86,0,0,1-14.7-14.73c.07-1.22,0-2.45,0-3.71-13.07,2.32-23,11-21.34,18.69.46-.42.86-.76,1.24-1.13l5.36-5.35c2.14-2.14,3.27-2.17,5.61-.18,6.8,5.81,13.62,11.59,20.39,17.44a45.49,45.49,0,0,1,3.45,3.74h3.08l-.32-.37a39.39,39.39,0,0,1,3.11-3.34c6.89-6,13.84-11.84,20.77-17.75,1.92-1.63,3.2-1.56,5,.22,2,1.93,3.88,3.88,5.83,5.81a11.85,11.85,0,0,0,1.19,1C134.68,99.24,127.5,91.11,113.41,89.14ZM95.52,128.3v38.76h4.06V128.3Zm-35,8.3c0-1.09,0-2.19,0-3.28a2.58,2.58,0,0,0-2.33-2.73,10.78,10.78,0,0,0-2.78,0,2.46,2.46,0,0,0-2.33,2.53c-.07,2.29-.08,4.59,0,6.89a2.49,2.49,0,0,0,2.7,2.47c.6,0,1.2,0,1.81,0a2.59,2.59,0,0,0,2.94-2.75C60.58,138.68,60.54,137.64,60.53,136.6Zm81.46,0c0-1.15.06-2.3,0-3.44a2.6,2.6,0,0,0-2.64-2.59,18.49,18.49,0,0,0-2,0,2.63,2.63,0,0,0-2.84,2.73c-.07,2.19-.08,4.38,0,6.56.07,1.75,1.13,2.63,2.9,2.62h1.8a2.54,2.54,0,0,0,2.75-2.61C142,138.78,142,137.68,142,136.59Zm-24.82-23.1.23.26L128.18,110,125,106.77Zm-39.45.25.12-.3L70.22,107l-3.59,2.93Z"/><path class="cls-2" d="M95.52,128.3h4.06v38.76H95.52Z"/><path class="cls-2" d="M118.69,52.81a56,56,0,0,1-4,18,23.52,23.52,0,0,1-7.27,9.81c-6.77,5.1-14.62,5.4-21.33-1-4.53-4.32-6.83-9.86-8.26-15.81a45.77,45.77,0,0,1-1.36-15.33,9.07,9.07,0,0,1,.66-2.69,2.75,2.75,0,0,1,4.12-1.31,3.6,3.6,0,0,0,4.3,0,54.11,54.11,0,0,0,5.8-4.27c2-1.73,4-1.5,5.24.83,3.5,6.61,9.32,9.34,16.77,7.89l.8-.18C117.62,48.09,118.93,49.24,118.69,52.81ZM82.16,51.19a46.37,46.37,0,0,0,2,13.73,24,24,0,0,0,5.69,10.24c4.32,4.3,9.61,4.49,14.27.55a12.9,12.9,0,0,0,1.08-1c5-5.53,6.34-12.4,7.32-19.62-8.07.65-14.73-1.59-19.55-8.27C89.8,49.19,86.57,51.35,82.16,51.19Z"/></g></g></svg>