<svg xmlns="http://www.w3.org/2000/svg" viewBox="0 0 193 193"><defs><style>.cls-1{stroke:#fff;stroke-miterlimit:10;}.cls-2{fill:#fff;}</style></defs><g id="Layer_2" data-name="Layer 2"><g id="Layer_1-2" data-name="Layer 1"><circle class="cls-1" cx="96.5" cy="96.5" r="96"/><path class="cls-2" d="M49.93,67.67A9.47,9.47,0,0,1,63.5,59.18a1.48,1.48,0,0,0,1.57-.07c3.17-1.81,6.37-3.58,9.52-5.41a2.2,2.2,0,0,0,1-1.17,9.48,9.48,0,0,1,18.61,2.11A2.18,2.18,0,0,0,94.81,56c3.38,3,6.81,6,10.21,9a1.16,1.16,0,0,0,1.42.28A9.38,9.38,0,0,1,112.9,65a1.38,1.38,0,0,0,1.11-.27c3.34-3.27,6.62-6.59,10-9.85a1.52,1.52,0,0,0,.33-1.55,9.48,9.48,0,1,1,7.93,7.91,1.81,1.81,0,0,0-1.77.58q-5.16,5.26-10.38,10.44a2,2,0,0,0-.66,1.58A9.46,9.46,0,0,1,100.72,76a1.16,1.16,0,0,1-.09-.39c.27-1.83-.91-2.78-2.12-3.81-3-2.54-5.93-5.15-8.87-7.75a1.2,1.2,0,0,0-1.43-.26,9.17,9.17,0,0,1-9-1,1.07,1.07,0,0,0-1.35,0q-4.14,2.35-8.31,4.66a1.31,1.31,0,0,0-.74,1.17,9.46,9.46,0,0,1-18.72.91C50,68.89,50,68.27,49.93,67.67Zm15.78-.06A6.26,6.26,0,0,0,59.1,61.4a6.31,6.31,0,1,0,6.61,6.21Zm68-9.41a6.31,6.31,0,1,0-6.33-6.29A6.3,6.3,0,0,0,133.69,58.2Zm-49-9.43A6.25,6.25,0,0,0,78.4,55.2a6.31,6.31,0,1,0,6.28-6.43Zm31.58,25.35a6.31,6.31,0,1,0-6.43,6.19A6.31,6.31,0,0,0,116.26,74.12Zm2-4.85,9.62-9.45-2.09-2.2L116.46,67ZM91.63,61.65l9.62,8.41L103,67.43,93.4,59ZM75.31,57,66.88,61.7l1.54,2.75,8-4.53Z"/><path class="cls-2" d="M97.33,124.56q22.33,0,44.68,0a8.74,8.74,0,0,1,9,9.36,15.83,15.83,0,0,1-3.42,9.47,16.1,16.1,0,0,1-12.28,6.39c-.51,0-1,0-1.52,0q-36.45,0-72.9,0c-6.7,0-11.81-2.77-15.19-8.56a15.23,15.23,0,0,1-2-7.66,8.73,8.73,0,0,1,9-9.05q19.5,0,39,0Zm0,22.12h36.85a13.35,13.35,0,0,0,13.66-12c.55-4.08-1.91-7-6-7q-44.46,0-88.92,0c-4.07,0-6.52,2.86-6,6.89a13.35,13.35,0,0,0,13.7,12.06Z"/><path class="cls-2" d="M127.36,96.05c0-6,0-12,0-18,0-4.39,2.73-7.17,7.12-7.2a15.45,15.45,0,0,1,3.73.28,6.46,6.46,0,0,1,4.86,5.72,8.72,8.72,0,0,1,.07,1q0,18.23,0,36.44c0,3.46-1.91,6.18-5.09,6.79a15.61,15.61,0,0,1-5.62,0,6.34,6.34,0,0,1-5-6.49C127.34,108.43,127.36,102.24,127.36,96.05Zm12.62.08q0-9.13,0-18.26A3.6,3.6,0,0,0,136.1,74h-1.22c-3.07,0-4.4,1.31-4.4,4.36v35.31c0,.37,0,.74,0,1.11a3.6,3.6,0,0,0,3.67,3.46c.58,0,1.15,0,1.73,0,2.65,0,4.07-1.42,4.08-4.06Z"/><path class="cls-2" d="M76.81,98.43c0-5.21,0-10.42,0-15.63,0-4.37,2.79-7.18,7.15-7.19a18,18,0,0,1,3,.11c3.42.58,5.61,3.34,5.61,7q0,14.2,0,28.42a38.84,38.84,0,0,1-.12,4.45,6.48,6.48,0,0,1-6.14,5.73,17.67,17.67,0,0,1-4.24-.13,6.54,6.54,0,0,1-5.28-6.45c0-5.44,0-10.89,0-16.33Zm12.61.1c0-4.9-.12-9.81,0-14.71.13-4-1.66-5.26-5.14-5.09-3.06.14-4.37,1.33-4.37,4.41v26.7c0,1.55,0,3.11,0,4.67a3.58,3.58,0,0,0,3.79,3.74c.54,0,1.08,0,1.62,0,2.65,0,4-1.42,4-4.09Z"/><path class="cls-2" d="M67.3,101.68c0,4.19,0,8.39,0,12.59s-2.74,7.06-7,7.11a15.18,15.18,0,0,1-3.82-.28,6.45,6.45,0,0,1-4.88-5.71,9.82,9.82,0,0,1-.07-1.21c0-8.36,0-16.72,0-25.08,0-3.76,2.17-6.54,5.67-7a15,15,0,0,1,4.64,0,6.47,6.47,0,0,1,5.46,6.49c0,4.37,0,8.73,0,13.1Zm-12.62-.07q0,6.39,0,12.78a3.6,3.6,0,0,0,3.87,3.86H60c2.78,0,4.19-1.4,4.19-4.17q0-6.94,0-13.89c0-3.76,0-7.51,0-11.26a3.58,3.58,0,0,0-3.79-3.85c-.61,0-1.21,0-1.82,0a3.58,3.58,0,0,0-3.87,4Q54.68,95.32,54.68,101.61Z"/><path class="cls-2" d="M117.85,106.43c0,2.67,0,5.34,0,8a6.65,6.65,0,0,1-6.67,6.93,17,17,0,0,1-3.84-.16,6.59,6.59,0,0,1-5.27-6.58c0-5.47-.06-10.95,0-16.43a6.65,6.65,0,0,1,6.84-6.78,17.05,17.05,0,0,1,3.92.25,6.49,6.49,0,0,1,5,6.34c0,2.81,0,5.61,0,8.42Zm-12.61-.07c0,2.78,0,5.55,0,8.32a3.54,3.54,0,0,0,3.44,3.56c.67,0,1.35,0,2,0a3.64,3.64,0,0,0,4-4c0-1.93,0-3.85,0-5.78,0-3.35,0-6.7,0-10.05a3.64,3.64,0,0,0-3.83-3.93c-.64,0-1.28,0-1.92,0a3.58,3.58,0,0,0-3.72,3.81C105.23,101,105.24,103.69,105.24,106.36Z"/></g></g></svg>